<?xml version="1.0" standalone="no"?>
<!DOCTYPE svg PUBLIC "-//W3C//DTD SVG 20010904//EN"
 "http://www.w3.org/TR/2001/REC-SVG-20010904/DTD/svg10.dtd">
<svg version="1.0" xmlns="http://www.w3.org/2000/svg"
 width="192.000000pt" height="192.000000pt" viewBox="0 0 192.000000 192.000000"
 preserveAspectRatio="xMidYMid meet">
<metadata>
Created by potrace 1.14, written by Peter Selinger 2001-2017
</metadata>
<g transform="translate(0.000000,192.000000) scale(0.100000,-0.100000)"
fill="#000000" stroke="none">
<path d="M400 1685 c-8 -2 -32 -6 -52 -10 -48 -8 -98 -49 -98 -81 0 -88 92
-157 433 -330 117 -58 232 -120 257 -137 65 -44 164 -146 182 -187 52 -114
101 -338 112 -505 13 -191 30 -214 146 -195 55 9 85 9 140 -1 61 -11 74 -10
117 6 64 24 75 34 71 63 -2 19 -20 36 -73 68 -124 75 -119 66 -171 359 -30
172 -45 221 -86 288 -38 59 -86 101 -177 152 -39 22 -71 42 -71 45 0 3 20 13
45 24 101 41 243 158 270 222 31 74 12 145 -47 182 -55 34 -175 42 -593 41
-214 -1 -397 -3 -405 -4z m774 -134 c32 -14 47 -27 52 -45 26 -106 -101 -223
-255 -234 -80 -5 -149 15 -296 89 -150 75 -240 138 -240 169 0 22 4 25 35 25
30 0 36 -4 44 -31 10 -32 16 -37 164 -116 l92 -50 0 61 c0 73 18 121 51 138
57 29 283 25 353 -6z"/>
<path d="M515 1291 c-3 -2 -5 -192 -5 -421 l0 -417 -22 -20 c-13 -11 -43 -33
-68 -48 -61 -37 -100 -75 -100 -97 0 -45 107 -66 246 -48 78 10 112 10 178 0
73 -11 89 -11 134 4 95 32 90 60 -24 142 -36 26 -70 58 -75 71 -5 13 -9 181
-9 372 l0 347 -125 60 c-69 33 -128 58 -130 55z"/>
</g>
</svg>
